Coordinates
version=1
nRows=7
nColumns=38
inDegrees=yes

Units are S.I. units (second, meters, Newtons, ...)
Angles are in degrees.

endheader
time	pelvis_tilt	pelvis_list	pelvis_rotation	pelvis_tx	pelvis_ty	pelvis_tz	hip_flexion_r	hip_adduction_r	hip_rotation_r	knee_angle_r	ankle_angle_r	subtalar_angle_r	mtp_angle_r	hip_flexion_l	hip_adduction_l	hip_rotation_l	knee_angle_l	ankle_angle_l	subtalar_angle_l	mtp_angle_l	lumbar_extension	lumbar_bending	lumbar_rotation	arm_flex_r	arm_add_r	arm_rot_r	elbow_flex_r	pro_sup_r	wrist_flex_r	wrist_dev_r	arm_flex_l	arm_add_l	arm_rot_l	elbow_flex_l	pro_sup_l	wrist_flex_l	wrist_dev_l
      1.85000000	     -0.28884609	      7.88201600	      0.10126537	      0.89064935	      0.90501448	     -0.20995216	     22.87350035	     -9.69641097	     -3.58847933	    -71.50685463	     -1.22314508	    -12.96919567	      0.00000000	     13.00246439	     12.98417514	     -0.36972506	    -20.67337102	      7.94618529	    -12.05487633	      0.00000000	     -3.87063197	     -6.77399276	      0.79129412	      3.51982450	     -9.25539980	     47.63408436	     22.85695538	     44.95104039	      0.00000000	      0.00000000	     -5.89487758	    -12.63917649	     25.44318297	     30.04073424	     44.95104039	      0.00000000	      0.00000000
      1.86000000	     -0.21239322	      7.54728381	      0.13648316	      0.90359538	      0.90688871	     -0.20998582	     24.34479308	     -9.10846580	     -3.67745152	    -70.64043423	     -0.38154705	    -13.18713643	      0.00000000	     11.40415140	     12.66779272	     -0.05228015	    -19.61209571	      8.49473674	    -11.81514979	      0.00000000	     -3.97148378	     -6.36827653	      0.41654560	      2.69364516	     -9.21536556	     47.67180345	     22.62292215	     44.95130331	      0.00000000	      0.00000000	     -4.69279482	    -12.99382214	     25.35027793	     30.49167887	     44.95130331	      0.00000000	      0.00000000
      1.87000000	      0.12158446	      7.28974519	      0.13187719	      0.91685761	      0.90893404	     -0.21008173	     25.35564000	     -8.64986781	     -3.84229837	    -69.35983261	      0.31811993	    -13.41466284	      0.00000000	      9.20211289	     12.43913919	      0.40250907	    -17.95290342	      8.94125961	    -11.74880158	      0.00000000	     -4.32456792	     -6.04728821	      0.28657602	      1.57520318	     -9.21691824	     47.62114037	     22.07227850	     44.95189567	      0.00000000	      0.00000000	     -3.36716277	    -13.37645324	     25.35293296	     31.56299539	     44.95189567	      0.00000000	      0.00000000
      1.88000000	      0.20951643	      7.09182723	      0.22340303	      0.93004694	      0.91031839	     -0.21027370	     26.49965057	     -8.17895968	     -3.93891630	    -67.74342726	      1.00927463	    -13.75604013	      0.00000000	      7.25526880	     12.39193510	      1.64443829	    -16.24598562	      8.75660427	    -13.04956338	      0.00000000	     -4.39764180	     -5.81283594	     -0.08778946	      0.79365450	     -8.77996865	     47.01093581	     20.55078222	     44.95533169	      0.00000000	      0.00000000	     -3.12753754	    -14.44949217	     24.91488558	     35.58484838	     44.95533169	      0.00000000	      0.00000000
      1.89000000	      0.34796183	      6.91960301	      0.35290498	      0.94355958	      0.91138109	     -0.21051965	     27.45937605	     -7.85962063	     -4.23955207	    -65.84537206	      1.51458958	    -14.02728169	      0.00000000	      5.40524051	     12.20519290	      1.98988593	    -14.90741393	      9.18454515	    -12.78359080	      0.00000000	     -4.46131167	     -5.61181994	     -0.42916020	     -0.31261981	     -8.79291632	     46.97224854	     20.25238487	     44.95589304	      0.00000000	      0.00000000	     -2.04516067	    -14.80315130	     24.51071604	     36.39436437	     44.95589304	      0.00000000	      0.00000000
      1.90000000	      0.20085525	      6.77334845	      0.61645369	      0.95682861	      0.91170613	     -0.21091940	     28.58061684	     -7.60327173	     -4.59089957	    -63.58706910	      1.80006925	    -14.28847979	      0.00000000	      4.02049856	     12.05001347	      2.38798779	    -13.80552116	      9.63066182	    -12.52884428	      0.00000000	     -4.18906192	     -5.44422754	     -1.00791428	     -1.26869449	     -8.79189220	     46.95125388	     20.00695706	     44.95612507	      0.00000000	      0.00000000	     -1.06044325	    -15.31089478	     24.26472466	     36.99044913	     44.95612507	      0.00000000	      0.00000000
      1.91000000	      0.32155394	      6.74160881	      0.87014584	      0.97024208	      0.91211009	     -0.21133121	     29.32514565	     -7.50319788	     -4.93208958	    -61.08238052	      2.16097499	    -14.52689256	      0.00000000	      1.90074934	     12.12967454	      4.27526808	    -11.87308790	      9.00897641	    -14.50276771	      0.00000000	     -4.28977994	     -5.46840630	     -1.61581215	     -2.34205263	     -8.45591144	     44.35389828	     19.52851301	     44.96768800	      0.00000000	      0.00000000	     -3.67268923	    -15.01627207	     12.65137460	     47.77199571	     44.96768800	      0.00000000	      0.00000000
